<?xml version="1.0" encoding="utf-8"?>
<svg  version="1.1" id="Layer_1" xmlns="http://www.w3.org/2000/svg" xmlns:xlink="http://www.w3.org/1999/xlink" x="0px" y="0px"
	viewBox="0 0 750 864" style="enable-background:new 0 0 720 864;" xml:space="preserve">
<style type="text/css">
	.st0{fill:#FFFFFF;}
</style>
<g>
	<g>
		<path class="st0" d="M318.34,473.69c3.46,0,6.84-0.12,10.2,0.08c0.9,0.05,1.73,1.13,2.61,1.69c1.68,1.06,2.22,2.62,1.88,4.47
			c-0.18,0.99-0.62,1.93-0.94,2.89c-0.16-0.01-0.32-0.01-0.48-0.02c0.3,0.36,0.55,0.77,0.91,1.06c0.88,0.71,1.25,1.53,1.48,2.71
			c0.66,3.35-1.59,4.93-3.6,6.73c-0.22,0.2-0.59,0.34-0.89,0.34c-3.69,0.02-7.39,0.02-11.18,0.02
			C318.34,486.97,318.34,480.45,318.34,473.69z M330.04,490.69c0-1.61,0.11-3.04-0.06-4.43c-0.06-0.5-0.77-1.29-1.22-1.32
			c-2.15-0.14-4.32-0.06-6.5-0.06c0,2.06,0,3.93,0,5.81C324.88,490.69,327.36,490.69,330.04,490.69z M329.14,481.68
			c0-1.76,0-3.36,0-5.04c-2.35,0-4.59,0-6.86,0c0,1.74,0,3.38,0,5.04C324.59,481.68,326.75,481.68,329.14,481.68z"/>
		<path class="st0" d="M357.39,486.92c1.16,0,2.34,0,3.68,0c0,1.14,0,2.21,0,3.4c3.67,0,7.19,0,10.8,0c0-1.85,0-3.67,0-5.77
			c-2.42,0-4.86-0.15-7.27,0.04c-2.56,0.2-4.66-0.46-6.5-2.27c-1-0.98-1.37-4.49-0.42-5.53c0.11-0.12,0.27-0.2,0.37-0.33
			c1.74-2.38,4.08-3.21,6.97-2.81c1.02,0.14,2.09,0.14,3.1,0c2.76-0.39,4.88,0.48,6.76,2.59c0.95,1.06,1.16,1.96,0.9,3.29
			c-1.23,0-2.45,0-3.74,0c-0.05-0.86-0.1-1.66-0.15-2.56c-3.53,0-7,0-10.63,0c0,1.49,0,2.96,0,4.62c3.16,0,6.31-0.01,9.46,0
			c2.53,0.01,4.89,2.64,5.26,5.06c0.49,3.25-1.45,4.89-3.57,6.53c-0.42,0.33-1.1,0.44-1.67,0.45c-2.29,0.05-4.59-0.1-6.87,0.05
			c-1.93,0.12-3.35-0.42-4.78-1.8C357.62,490.49,356.68,489.16,357.39,486.92z"/>
		<path class="st0" d="M400.9,473.69c3.81,0,7.56-0.13,11.3,0.09c0.94,0.05,1.88,1.14,2.71,1.87c0.67,0.59,1.59,1.32,1.68,2.07
			c0.22,1.76,0.31,3.65-0.13,5.34c-0.25,0.96-1.66,1.62-2.49,2.36c0.97,2.9,4.02,4.7,3.06,8.13c-1.07,0-2.19,0-3.55,0
			c0.37-2.78-0.97-5.27-2.98-6.71c-1.28-0.92-3.76-0.17-5.9-0.17c0,2.25,0,4.5,0,6.88c-1.31,0-2.43,0-3.71,0
			C400.9,487.05,400.9,480.5,400.9,473.69z M404.66,476.55c0,2.41,0,4.57,0,6.84c2.43,0,4.76,0.04,7.09-0.04
			c0.33-0.01,0.9-0.59,0.92-0.94c0.1-1.63,0.1-3.27,0-4.89c-0.02-0.34-0.6-0.91-0.93-0.92C409.4,476.51,407.07,476.55,404.66,476.55
			z"/>
		<path class="st0" d="M422.41,483.62c0-0.76,0.09-1.54-0.02-2.29c-0.38-2.8,0.25-5.16,2.86-6.65c0.75-0.43,1.59-0.86,2.43-0.96
			c1.34-0.16,2.74,0.09,4.08-0.07c2.36-0.28,4.14,0.46,5.76,2.22c0.96,1.05,1.5,1.98,1.46,3.4c-0.08,3.11,0.05,6.22-0.07,9.32
			c-0.03,0.81-0.46,1.82-1.06,2.34c-1.22,1.05-1.98,2.82-4.02,2.75c-2.12-0.07-4.26,0.05-6.38-0.05c-0.69-0.03-1.43-0.41-2.04-0.81
			c-2.44-1.59-3.55-3.8-3.03-6.76C422.52,485.27,422.41,484.43,422.41,483.62z M434.92,490.7c0-4.79,0-9.4,0-14.08
			c-2.89,0-5.7,0-8.51,0c0,4.74,0,9.39,0,14.08C429.29,490.7,432.04,490.7,434.92,490.7z"/>
		<path class="st0" d="M338.47,476.59c0-1.09,0-1.89,0-2.8c4.73,0,9.39,0,14.14,0c0,0.84,0,1.64,0,2.75c-1.33,0-2.67-0.06-3.99,0.04
			c-0.4,0.03-1.09,0.5-1.09,0.78c-0.07,4.4-0.05,8.81-0.05,13.37c1.78,0,3.4,0,5.15,0c0.04,0.72,0.21,1.34,0.05,1.86
			c-0.13,0.42-0.64,1.03-0.99,1.04c-4.35,0.07-8.71,0.05-13.19,0.05c0-0.97,0-1.81,0-2.82c1.64,0,3.25,0,5.01,0
			c0-4.8,0-9.44,0-14.26C341.85,476.59,340.24,476.59,338.47,476.59z"/>
		<path class="st0" d="M395.97,473.8c0,0.96,0,1.75,0,2.71c-2.11,0-4.11,0-6.26,0c0,5.75,0,11.34,0,16.88
			c-0.29,0.13-0.44,0.25-0.58,0.26c-3.34,0.21-3.34,0.2-3.34-3.15c0-4.57,0-9.15,0-13.88c-2.1,0-4.09,0-6.18,0c0-1.01,0-1.85,0-2.81
			C385.01,473.8,390.43,473.8,395.97,473.8z"/>
	</g>
	<g>
		<path class="st0" d="M469.65,448.51c-2.08,0-4.08,0-6.22,0c0-12.54,0-25,0-37.46c-0.11-0.02-0.22-0.05-0.32-0.07
			c-1.02,2.66-2.06,5.32-3.07,7.99c-3.53,9.27-7.09,18.53-10.54,27.84c-0.54,1.45-1.24,1.85-2.71,1.82
			c-4.55-0.09-4.52-0.04-6.16-4.37c-4.09-10.8-8.2-21.6-12.3-32.4c-0.09-0.25-0.22-0.49-0.54-0.72c0,12.38,0,24.76,0,37.32
			c-0.72,0.05-1.28,0.08-1.98,0.13c0-14.59,0-29.07,0-43.8c2.09,0,4.2-0.06,6.3,0.05c0.39,0.02,0.91,0.68,1.09,1.15
			c2.9,7.59,5.75,15.2,8.62,22.8c1.88,5,3.76,10,5.65,14.99c0.15,0.39,0.38,0.74,0.67,1.32c2.84-7.51,5.59-14.79,8.34-22.07
			c2.14-5.66,4.29-11.31,6.38-16.99c0.34-0.91,0.76-1.32,1.75-1.28c1.63,0.06,3.26,0.02,5.04,0.02
			C469.65,419.37,469.65,433.85,469.65,448.51z"/>
		<path class="st0" d="M416.34,448.52c-2.08,0-4.09,0-6.28,0c0-12.51,0-24.96,0-37.42c-0.11-0.02-0.23-0.04-0.34-0.06
			c-1.43,3.74-2.86,7.48-4.28,11.22c-3.18,8.36-6.37,16.71-9.51,25.08c-0.37,0.98-0.86,1.41-1.91,1.24c-0.42-0.07-0.87,0-1.31,0
			c-3.83,0.02-3.81,0.01-5.19-3.64c-4.2-11.12-8.42-22.22-12.64-33.33c-0.04-0.09-0.13-0.16-0.41-0.48c0,12.55,0,24.86,0,37.34
			c-0.76,0.04-1.32,0.08-2.02,0.12c0-14.58,0-29.07,0-43.75c2.13,0,4.29-0.05,6.44,0.05c0.33,0.02,0.76,0.69,0.93,1.14
			c2.98,7.79,5.93,15.59,8.87,23.4c1.79,4.74,3.55,9.49,5.33,14.24c0.17,0.45,0.41,0.87,0.73,1.53c2.85-7.55,5.61-14.87,8.37-22.19
			c2.13-5.66,4.29-11.31,6.38-16.98c0.34-0.92,0.79-1.29,1.77-1.25c1.63,0.07,3.26,0.02,5.06,0.02
			C416.34,419.38,416.34,433.85,416.34,448.52z"/>
		<path class="st0" d="M519.34,425.57c-0.36,9.49-2.87,16.73-10.6,21.1c-9.56,5.41-26.7,3.14-30.22-14.41
			c-1.37-6.85-0.62-13.53,3.36-19.47c4.72-7.06,11.7-9.4,19.8-8.38c8.49,1.08,13.88,6.17,16.37,14.24
			C518.85,421.23,519.06,423.98,519.34,425.57z M484.39,426.95c0.26,5.18,1.17,10.18,4.02,14.64c4.93,7.7,14.53,8.02,19.92,0.64
			c2.03-2.78,3.17-5.95,3.8-9.31c1.38-7.38,0.69-14.49-3.27-20.99c-4.9-8.03-14.76-8.24-20.16-0.53
			C485.44,416.07,484.65,421.44,484.39,426.95z"/>
		<path class="st0" d="M558.71,442.59c0-12.53,0-25.06,0-37.69c0.68,0,1.25,0,1.93,0c0,14.49,0,28.97,0,43.68
			c-1.94,0-3.89,0.08-5.82-0.06c-0.48-0.03-1.03-0.7-1.35-1.2c-7.73-11.95-15.44-23.91-23.16-35.87c-0.14-0.22-0.31-0.42-0.72-0.96
			c0,12.87,0,25.37,0,37.97c-0.77,0-1.34,0-2.05,0c0-14.5,0-28.97,0-43.64c1.95,0,3.85-0.1,5.73,0.06c0.53,0.04,1.13,0.75,1.48,1.29
			c7.72,11.89,15.4,23.8,23.09,35.7c0.17,0.27,0.37,0.53,0.55,0.79C558.5,442.64,558.61,442.61,558.71,442.59z"/>
		<path class="st0" d="M619.34,415.82c-2.11,0-4.11,0-6.29,0c-0.08-0.54-0.18-1.11-0.24-1.69c-0.53-4.47-3.85-7.78-8.23-8.19
			c-5.47-0.52-9.52,1.89-10.93,6.49c-1.64,5.38,0.49,10.67,5.29,12.58c1.52,0.6,3.29,0.74,4.95,0.81c4.9,0.2,9.55,1.07,13.42,4.35
			c4.48,3.79,4.72,10.05,0.53,14.13c-3.07,3-6.94,4.18-11.1,4.65c-4.85,0.55-9.59,0.2-14.12-1.75c-3.51-1.51-6.23-3.81-7.13-7.74
			c-0.13-0.57-0.15-1.17-0.24-1.89c2.18,0,4.22,0,6.38,0c0.09,0.64,0.13,1.28,0.27,1.89c0.71,3.25,2.53,5.63,5.61,6.98
			c4.66,2.04,11.09,1.16,13.98-1.95c2.98-3.2,3.65-6.93,2.04-10.92c-1.63-4.04-5.05-5.77-9.19-5.99c-3.89-0.21-7.72-0.44-11.3-2.22
			c-5.19-2.58-7.56-7.66-5.85-12.73c0.76-2.25,2.26-3.94,4.19-5.29c6.26-4.38,17.82-4.2,23.84,0.45
			C617.81,409.77,619.4,412.31,619.34,415.82z"/>
		<path class="st0" d="M324.69,446.93c3.32,0,6.36,0,9.41,0c4.2,0,8.4,0.01,12.6-0.02c1.05-0.01,1.6,0.26,1.22,1.54
			c-9.79,0-19.63,0-29.57,0c0-14.48,0-28.92,0-43.52c2.03,0,4.1,0,6.34,0C324.69,418.91,324.69,432.79,324.69,446.93z"/>
		<path class="st0" d="M356.79,404.87c2.14,0,4.19,0,6.31,0c0,14.52,0,29,0,43.6c-2.11,0-4.15,0-6.31,0
			C356.79,434.01,356.79,419.54,356.79,404.87z"/>
		<path class="st0" d="M575.83,404.13c2.55-0.11,5.33,2.84,3.42,5.82c-2.66,4.17-5.09,8.49-7.68,12.7
			c-0.29,0.47-1.04,0.66-1.57,0.98c-0.17-0.59-0.57-1.21-0.48-1.75c0.86-4.98,1.78-9.95,2.72-14.92
			C572.6,405.04,573.84,404.11,575.83,404.13z"/>
	</g>
</g>
<g>
	<path class="st0" d="M293.91,399.8c0,28.82,0,57.65-0.01,86.47c0,1.3-0.03,2.63-0.25,3.91c-0.36,2.09-1.55,3.1-3.69,3.28
		c-1.3,0.11-2.62,0.16-3.92,0.16c-36.25-0.03-72.49-0.08-108.74-0.09c-8.08,0-16.15,0.13-24.23,0.19c-0.65,0-1.31-0.01-1.96-0.1
		c-2.91-0.43-4.19-1.7-4.26-4.66c-0.11-4.69-0.01-9.38,0-14.07c0.01-25.06-0.01-50.11,0.02-75.17c0.02-18.89,0.11-37.77,0.08-56.66
		c-0.01-8.62-0.3-17.24-0.35-25.87c-0.01-2.61,0.26-5.23,0.61-7.82c0.29-2.19,1.42-3.11,3.59-3.35c0.6-0.06,1.2-0.1,1.8-0.1
		c13.65-0.04,27.29-0.09,40.94-0.11c31.12-0.03,62.23-0.04,93.35-0.06c0.71,0,1.42-0.03,2.13,0.02c3.33,0.24,4.7,1.63,4.88,4.93
		c0.04,0.65,0.03,1.31,0.03,1.96C293.91,341.71,293.91,370.75,293.91,399.8z M198.32,438.08c0-12.84,0-25.49,0-38.19
		c7.82-1.95,12.97-7.15,16.78-13.86c4.66-8.19,6.66-17.11,7.05-26.45c0.06-1.5,0.01-3.01,0.01-4.51c-18.27,0-36.3,0-54.32,0
		c-0.07,0.45-0.17,0.78-0.17,1.1c0.01,1.14,0.03,2.29,0.07,3.43c0.33,9.69,2.5,18.9,7.54,27.27c3.61,6.01,8.33,10.79,15.33,12.73
		c1.15,0.32,1.03,1.09,1.03,1.88c0.01,9.82,0.01,19.65,0.01,29.47c0,2.32,0,4.65,0,7.12c-2.84,0-5.34-0.01-7.84,0.01
		c-1.41,0.01-2.47,0.58-2.69,2.08c-0.12,0.84-0.02,1.72-0.02,2.66c9.31,0,18.44,0,27.56,0c0.51-3.89-0.22-4.75-3.96-4.75
		C202.63,438.08,200.57,438.08,198.32,438.08z M264.43,403.31c0,2.2,0,4.15,0,6.1c0,10.09,0,20.19,0.01,30.28
		c0,2.25,0.92,3.2,3.13,3.3c0.49,0.02,0.98,0.01,1.47,0c3-0.03,3.87-0.96,3.87-3.95c-0.02-10.2-0.01-20.4-0.01-30.59
		c0-17.19,0-34.38-0.01-51.56c0-0.43-0.09-0.87-0.16-1.5c-0.35,0.31-0.49,0.4-0.59,0.52c-0.26,0.35-0.51,0.71-0.74,1.07
		c-3.74,5.75-6.44,11.98-8.48,18.52c-2.57,8.27-3.92,16.75-4.11,25.41c-0.05,2.12,0.2,2.38,2.28,2.39
		C262.12,403.31,263.15,403.31,264.43,403.31z M239.58,390.53c0,0.8,0,1.34,0,1.87c0,15.28,0,30.56,0.01,45.84
		c0,0.87,0.07,1.74,0.14,2.61c0.12,1.53,0.97,2.17,2.5,2.16c1.55-0.01,2.33-0.73,2.42-2.24c0.04-0.6,0.07-1.2,0.07-1.8
		c0-15.55,0-31.11,0.01-46.66c0-0.57,0.05-1.15,0.08-1.79c1.08,0,1.95,0.02,2.82,0c2.27-0.05,4.04-1.62,4.04-3.86
		c0.03-9.17,0-18.34-0.08-27.5c-0.01-1.34-0.45-2.68-0.69-4.02c-0.27,0.01-0.54,0.02-0.81,0.03c-0.22,2.01-0.61,4.02-0.64,6.04
		c-0.08,6.6-0.03,13.21-0.04,19.81c0,0.6,0.1,1.28-0.15,1.77c-0.26,0.5-0.91,1.15-1.36,1.12c-0.55-0.03-1.23-0.58-1.55-1.1
		c-0.28-0.45-0.2-1.16-0.2-1.75c-0.01-6.71,0.04-13.43-0.04-20.14c-0.02-1.94-0.43-3.88-0.67-5.81c-0.22,0-0.44,0-0.66,0
		c-0.15,0.42-0.39,0.84-0.45,1.27c-0.21,1.62-0.49,3.24-0.51,4.87c-0.06,6.71-0.03,13.43-0.02,20.14c0,1.21-0.06,2.53-1.58,2.56
		c-1.69,0.04-1.67-1.38-1.65-2.62c0-0.11,0-0.22,0-0.33c-0.02-6.88,0.02-13.75-0.08-20.63c-0.03-1.76-0.47-3.51-0.72-5.26
		c-0.31,0.01-0.62,0.02-0.93,0.04c-0.22,2.01-0.61,4.01-0.63,6.02c-0.08,6.66-0.04,13.32-0.03,19.97c0,1.3,0.07,2.8-1.66,2.81
		c-1.84,0-1.55-1.62-1.56-2.84c-0.03-6.93,0.02-13.86-0.08-20.79c-0.02-1.72-0.47-3.43-0.72-5.15c-0.22,0-0.43,0-0.65-0.01
		c-0.19,0.75-0.52,1.5-0.53,2.26c-0.13,9.82-0.26,19.63-0.28,29.45c-0.01,2.06,1.8,3.58,3.9,3.66
		C237.51,390.56,238.43,390.53,239.58,390.53z"/>
	<path class="st0" d="M155.8,301.68c2.19-0.48,4.39-0.98,6.58-1.44c22.42-4.67,44.68-9.97,66.46-17.11
		c13.92-4.56,27.36-10.26,39.9-17.93c1.58-0.97,3.15-1.96,4.72-2.93c0.07-0.04,0.2,0,0.58,0.02c0,0.88,0,1.78,0,2.68
		c0.03,10.59,0.04,21.17,0.1,31.76c0.03,4.94-0.3,5.35-5.2,5.35c-37.45,0.01-74.89,0.01-112.34,0.01c-0.25,0-0.49-0.02-0.74-0.04
		C155.85,301.94,155.82,301.81,155.8,301.68z"/>
	<path class="st0" d="M269.14,255.14c0,1.87,0.14,3.4-0.07,4.88c-0.09,0.65-0.79,1.38-1.41,1.76
		c-11.54,7.17-23.88,12.63-36.71,17.05c-16.82,5.8-34.02,10.19-51.35,14.12c-6.79,1.54-13.6,3.03-20.41,4.51
		c-0.7,0.15-1.44,0.12-2.16,0.17c-0.08-0.15-0.16-0.31-0.24-0.46c1.99-2.04,3.85-4.25,6.04-6.05c0.94-0.78,2.56-0.76,3.89-1.04
		c18.3-3.8,36.53-7.9,54.46-13.21c14.73-4.36,29.06-9.7,42.14-17.95C265.16,257.77,266.97,256.56,269.14,255.14z"/>
	<path class="st0" d="M166.81,286.34c0.48-0.85,0.8-1.57,1.25-2.19c2.22-3.07,5.41-4.27,9.02-5.01
		c15.79-3.25,31.52-6.77,46.95-11.53c12.81-3.95,25.19-8.86,36.43-16.31c0.22-0.15,0.46-0.26,0.71-0.39
		c1.31,3.48,0.91,4.83-2.13,6.65c-9.02,5.4-18.65,9.48-28.59,12.83c-20.54,6.91-41.68,11.5-62.84,15.96
		C167.45,286.37,167.29,286.34,166.81,286.34z"/>
	<g>
		<path d="M198.32,438.08c2.24,0,4.31,0,6.38,0c3.74,0,4.47,0.85,3.96,4.75c-9.12,0-18.26,0-27.56,0c0-0.94-0.1-1.82,0.02-2.66
			c0.22-1.5,1.28-2.07,2.69-2.08c2.5-0.02,5-0.01,7.84-0.01c0-2.47,0-4.8,0-7.12c0-9.82,0-19.65-0.01-29.47
			c0-0.8,0.13-1.56-1.03-1.88c-7-1.94-11.72-6.73-15.33-12.73c-5.04-8.38-7.2-17.58-7.54-27.27c-0.04-1.14-0.07-2.29-0.07-3.43
			c0-0.32,0.1-0.64,0.17-1.1c18.03,0,36.06,0,54.32,0c0,1.5,0.05,3.01-0.01,4.51c-0.39,9.34-2.4,18.26-7.05,26.45
			c-3.82,6.71-8.97,11.91-16.78,13.86C198.32,412.59,198.32,425.24,198.32,438.08z"/>
		<path d="M264.43,403.31c-1.28,0-2.31,0-3.34,0c-2.08-0.01-2.32-0.27-2.28-2.39c0.19-8.66,1.54-17.14,4.11-25.41
			c2.03-6.53,4.74-12.76,8.48-18.52c0.24-0.36,0.48-0.72,0.74-1.07c0.09-0.12,0.23-0.21,0.59-0.52c0.07,0.63,0.16,1.06,0.16,1.5
			c0.01,17.19,0.01,34.38,0.01,51.56c0,10.2-0.01,20.4,0.01,30.59c0.01,2.99-0.87,3.92-3.87,3.95c-0.49,0-0.98,0.02-1.47,0
			c-2.21-0.1-3.13-1.04-3.13-3.3c-0.01-10.09-0.01-20.19-0.01-30.28C264.43,407.46,264.43,405.51,264.43,403.31z"/>
		<path d="M239.58,390.53c-1.15,0-2.07,0.03-2.98-0.01c-2.1-0.07-3.9-1.6-3.9-3.66c0.03-9.82,0.15-19.63,0.28-29.45
			c0.01-0.76,0.35-1.51,0.53-2.26c0.22,0,0.43,0,0.65,0.01c0.25,1.72,0.69,3.43,0.72,5.15c0.09,6.93,0.05,13.86,0.08,20.79
			c0,1.22-0.28,2.84,1.56,2.84c1.73,0,1.66-1.51,1.66-2.81c-0.01-6.66-0.05-13.32,0.03-19.97c0.02-2.01,0.41-4.01,0.63-6.02
			c0.31-0.01,0.62-0.02,0.93-0.04c0.25,1.75,0.7,3.5,0.72,5.26c0.1,6.87,0.07,13.75,0.08,20.63c0,0.11,0,0.22,0,0.33
			c-0.02,1.24-0.05,2.66,1.65,2.62c1.53-0.03,1.58-1.35,1.58-2.56c-0.01-6.71-0.04-13.43,0.02-20.14c0.01-1.62,0.3-3.25,0.51-4.87
			c0.06-0.44,0.29-0.85,0.45-1.27c0.22,0,0.44,0,0.66,0c0.23,1.94,0.64,3.87,0.67,5.81c0.08,6.71,0.03,13.43,0.04,20.14
			c0,0.59-0.09,1.3,0.2,1.75c0.32,0.52,1,1.07,1.55,1.1c0.45,0.02,1.1-0.62,1.36-1.12c0.25-0.49,0.15-1.17,0.15-1.77
			c0.01-6.6-0.05-13.21,0.04-19.81c0.02-2.01,0.42-4.02,0.64-6.04c0.27-0.01,0.54-0.02,0.81-0.03c0.24,1.34,0.68,2.68,0.69,4.02
			c0.08,9.17,0.11,18.34,0.08,27.5c-0.01,2.24-1.77,3.81-4.04,3.86c-0.87,0.02-1.74,0-2.82,0c-0.03,0.65-0.08,1.22-0.08,1.79
			c0,15.55,0,31.11-0.01,46.66c0,0.6-0.03,1.2-0.07,1.8c-0.09,1.51-0.87,2.22-2.42,2.24c-1.53,0.01-2.38-0.63-2.5-2.16
			c-0.07-0.87-0.14-1.74-0.14-2.61c-0.01-15.28-0.01-30.56-0.01-45.84C239.58,391.87,239.58,391.33,239.58,390.53z"/>
	</g>
</g>
</svg>
